# xmcd CD database file
#
# Track frame offsets:
#	150
#	11950
#	45265
#	62740
#	74965
#	87230
#	100555
#	114185
#	128845
#	158900
#	167745
#	175510
#	187530
#	199315
#	210665
#	226495
#	239790
#	251885
#	265100
#	282455
#
# Disc length: 3953 seconds
#
# Revision: 0
# Processed by: cddbd v1.5.2PL0 Copyright (c) Steve Scherf et al.
# Submitted via: CDex 1.51
#
DISCID=1c0f6f14
DTITLE=Various Artist - Blues Originals Disc 1
DYEAR=2007
DGENRE=Blues
TTITLE0=Take a Swing at Me - BB King
TTITLE1=Chains of Love - Big Joe Turner
TTITLE2=Nobody's Business but Mine - Mississippi John Hurt
TTITLE3=My Baby's So Sweet - Jimmy Reed
TTITLE4=Sugar Mama - Big Joe Williams
TTITLE5=Dust My Broom - Elmore James
TTITLE6=Crawlin' King Snake - John Lee Hooker
TTITLE7=I Was So Young - Jimmy Reed
TTITLE8=Stormy Monday Blues - Big Joe Turner
TTITLE9=Coffee Blues - Mississippi John Hurt
TTITLE10=Terraplane Blues - Big Joe Williams
TTITLE11=Gyspsy Woman - Muddy Waters
TTITLE12=Boogie in the Dark - Jimmy Reed
TTITLE13=Coming Home - Elmore James
TTITLE14=Everyday I Have the Blues - Big Joe Turner
TTITLE15=I'm Still in Love with You - Elmore James
TTITLE16=Shotgun Blues - Lightnin' Hopkins
TTITLE17=Don't Want No Big Fat Woman - Big Joe Williams
TTITLE18=Lonesome Blues - Mississippi John Hurt
TTITLE19=How Long Blues - Jimmy Witherspoon
EXTD=YEAR: 2007
EXTT0=
EXTT1=
EXTT2=
EXTT3=
EXTT4=
EXTT5=
EXTT6=
EXTT7=
EXTT8=
EXTT9=
EXTT10=
EXTT11=
EXTT12=
EXTT13=
EXTT14=
EXTT15=
EXTT16=
EXTT17=
EXTT18=
EXTT19=
PLAYORDER=
